<?xml version="1.0" encoding="utf-8"?>
<!-- Generator: Adobe Illustrator 25.0.0, SVG Export Plug-In . SVG Version: 6.00 Build 0)  -->
<svg version="1.1" id="Layer_1" xmlns="http://www.w3.org/2000/svg" xmlns:xlink="http://www.w3.org/1999/xlink" x="0px" y="0px"
	 viewBox="0 0 700 700" style="enable-background:new 0 0 700 700;" xml:space="preserve">
<path d="M631.6,187.7c-44-43.2-102.6-67-164.8-67c-41.7,0-81.7,10.7-116.8,30.7c-34.3-19.4-74.1-30.6-116.6-30.6
	C104.5,120.9,0,223.3,0,349.7c0,126.4,104.5,228.8,233.4,228.8c42.5,0,82.3-11.1,116.6-30.6c35.1,20,75.1,30.7,116.8,30.7
	c62.2,0,120.8-23.8,164.8-67c44.1-43.3,68.4-100.8,68.4-162S675.7,231,631.6,187.7z M466.8,549.8c-112.7,0-204.4-89.8-204.4-200.1
	s91.7-200.1,204.4-200.1s204.4,89.8,204.4,200.1S579.4,549.8,466.8,549.8z"/>
<path d="M573.2,435.6l-71.8-200.2h-49.9l-71.5,200.2h43.5l12.3-36h81.4l12.3,36H573.2z M476.7,280.8l28,81.8h-56
	C448.7,362.6,476.7,280.8,476.7,280.8z"/>
</svg>
