<svg width="284" height="216" fill="none" xmlns="http://www.w3.org/2000/svg"><path d="M208 138.5a65.142 65.142 0 01-9.68 34.116 65.915 65.915 0 01-26.173 24.14 42.54 42.54 0 01-1.468.727l-.102.051-.351.167a64.15 64.15 0 01-6.548 2.662c-1.101.38-2.214.732-3.338 1.056l-1.345.368a66.803 66.803 0 01-44.914-3.874 66.133 66.133 0 01-1.717-.824l-1.019-.505a66.134 66.134 0 01-24.847-22.434 55.018 55.018 0 01-1.865-3.031 80.893 80.893 0 01-1.529-2.733 64.78 64.78 0 01-7.261-29.886c0-1.226.034-2.445.102-3.657.955-17.033 8.575-33.023 21.24-44.572 12.664-11.548 29.374-17.743 46.574-17.266 17.201.476 33.535 7.586 45.529 19.818 11.995 12.231 18.702 28.618 18.697 45.677H208z" fill="url(#paint0_linear)"/><path d="M128.945 136.171s-14.778-6.946-16.062-16.504c-1.284-9.557-.382-18.691 6.981-21.247 0 0 4.658-14.72 21.168-8.805 16.51 5.915 13.906 23.677 22.931 25.804 9.024 2.127 25.876-6.83 29.091 4.097s-7.358 10.26-14.385 19.535c-7.027 9.274 3.827 14.144 1.839 20.53-1.987 6.385-9.493 10.775-9.493 10.775l-42.07-34.185z" fill="url(#paint1_linear)"/><path d="M108.71 157.136l4.173 11.25h.454l6.527-29.335c-4.122 3.581-11.154 18.085-11.154 18.085z" fill="url(#paint2_linear)"/><path d="M101.382 172.654l-2.645 1.319c-3.281 1.95-8.183 1.394-8.183 1.394 2.65 2.955 17.57 6.3 21.763 6.214l.775-10.467h-9.295l-2.415 1.54z" fill="url(#paint3_linear)"/><path d="M170.679 197.468l-.102.051-.351.166a64.15 64.15 0 01-6.548 2.663c-1.101.38-2.214.732-3.338 1.055l-1.345.369a66.803 66.803 0 01-44.914-3.874 66.133 66.133 0 01-1.717-.824l-1.019-.505c.142-4.334.362-9.522.683-14.993.203-3.42.453-6.951.749-10.457.076-.915.158-1.824.239-2.733 1.203-12.922 3.129-24.905 6.217-28.714l.046-.05a3.155 3.155 0 011.579-1.137c4.459-1.051 7.603-1.404 8.097-2.314.495-.909 0-2.697 0-2.697l.887-.122c1.289-.192 3.791-.596 6.161-1.202a.072.072 0 00.046 0c2.094-.54 4.076-1.238 5.044-2.076l1.988 5.238s14.945-1.874 20.78 3.759a.557.557 0 01.097.091c.061.055.119.114.173.177.347.364.656.761.922 1.187 1.901 3.031 3.246 15.195 4.179 28.39.214 3.031.408 6.163.576 9.23.387 7.082.677 13.942.871 19.322z" fill="url(#paint4_linear)"/><path opacity=".15" d="M170.577 197.534l-.351.167a64.17 64.17 0 01-6.548 2.662 67.4 67.4 0 01-3.338 1.056c-6.884-7.27-9.615-16.706-9.615-16.706l19.073-6.567.779 19.388z" fill="#000"/><path d="M163.856 139.051c6.904 6.718 8.407 20.823 7.134 31.32-1.274 10.497-3.639 20.328-8.551 20.025-4.912-.303-21.912-11.993-28.48-18.368l3.837-7.3 13.881 5.734v-15.281l12.179-16.13z" fill="url(#paint5_linear)"/><path d="M163.856 139.051c6.904 6.718 8.407 20.823 7.134 31.32-1.274 10.497-3.639 20.328-8.551 20.025-4.912-.303-21.912-11.993-28.48-18.368l3.837-7.3 13.881 5.734v-15.281l12.179-16.13z" fill="url(#paint6_linear)"/><g filter="url(#filter0_d)"><path d="M128.145 168.386h-63.69v2.733h63.69v-2.733z" fill="url(#paint7_linear)"/><path d="M100.435 134.843H52l12.454 33.543h48.43l-12.449-33.543z" fill="url(#paint8_linear)"/></g><path d="M78.997 171.119s8.357 4.147 13.667 4.248c5.31.101 11.139-4.248 11.139-4.248H78.997z" fill="url(#paint9_linear)"/><path d="M137.796 164.728s-7.348-3.677-10.512-4.081c-3.165-.405-12.989 7.739-12.989 7.739h13.86l5.82 3.642 3.821-7.3z" fill="url(#paint10_linear)"/><path d="M140.471 121.789c.037 2.766.241 5.528.612 8.27-3.287 1.833-7.134 2.818-11.252 3.298l-.239-3.298-.143-2.021v-.066a6.109 6.109 0 01-2.303-.505c-4.973-2.127-6.043-12.523-6.043-12.523 1.992-.081 4.586-3.642 4.586-3.642 1.452 2.202 8.188 6.456 12.097 5.314 3.908-1.142 3.603-3.875 3.603-3.875a4.186 4.186 0 011.767 1.395 4.13 4.13 0 01.78 2.101c.209 2.668-3.465 5.552-3.465 5.552z" fill="url(#paint11_linear)"/><path opacity=".15" d="M137.134 124.724c-.922 1.546-5.095 4.006-7.536 5.345l-.143-2.021c.153 0 .301-.05.443-.081a16.89 16.89 0 005.702-2.111 8.905 8.905 0 001.463-1.071l.071-.061zm8.815 43.379l10.813 4.385-5.095-3.643v-13.639s-1.595 11.851-5.718 12.897z" fill="#000"/><defs><linearGradient id="paint0_linear" x1="142.193" y1="80.094" x2="139.971" y2="209.225" gradientUnits="userSpaceOnUse"><stop stop-color="#fff" stop-opacity="0"/><stop offset="1" stop-color="#64B5F6" stop-opacity=".6"/></linearGradient><linearGradient id="paint1_linear" x1="112.399" y1="129.281" x2="193.655" y2="129.281" gradientUnits="userSpaceOnUse"><stop stop-color="#EF9A9A"/><stop offset="1" stop-color="#D81B60"/></linearGradient><linearGradient id="paint2_linear" x1="113.683" y1="154.883" x2="111.274" y2="182.514" gradientUnits="userSpaceOnUse"><stop stop-color="#7E57C2"/><stop offset="1" stop-color="#4527A0"/></linearGradient><linearGradient id="paint3_linear" x1="6850.02" y1="2599.43" x2="6826.49" y2="3175.43" gradientUnits="userSpaceOnUse"><stop stop-color="#7E57C2"/><stop offset="1" stop-color="#4527A0"/></linearGradient><linearGradient id="paint4_linear" x1="20378.2" y1="14930" x2="24505.7" y2="22564.9" gradientUnits="userSpaceOnUse"><stop stop-color="#7E57C2"/><stop offset="1" stop-color="#4527A0"/></linearGradient><linearGradient id="paint5_linear" x1="13997.4" y1="9842.53" x2="17661.5" y2="15998.1" gradientUnits="userSpaceOnUse"><stop stop-color="#7E57C2"/><stop offset="1" stop-color="#4527A0"/></linearGradient><linearGradient id="paint6_linear" x1="155.758" y1="144.749" x2="150.038" y2="191.812" gradientUnits="userSpaceOnUse"><stop offset=".14" stop-color="#7E57C2" stop-opacity="0"/><stop offset=".26" stop-color="#724DBB" stop-opacity=".21"/><stop offset=".48" stop-color="#5F3DAF" stop-opacity=".55"/><stop offset=".66" stop-color="#5131A7" stop-opacity=".79"/><stop offset=".81" stop-color="#482AA2" stop-opacity=".94"/><stop offset=".91" stop-color="#4527A0"/></linearGradient><linearGradient id="paint7_linear" x1="64.454" y1="169.75" x2="128.145" y2="169.75" gradientUnits="userSpaceOnUse"><stop stop-color="#D2D4D5"/><stop offset="1" stop-color="#AAACAE"/></linearGradient><linearGradient id="paint8_linear" x1="574.989" y1="4270.71" x2="4179.02" y2="8404.05" gradientUnits="userSpaceOnUse"><stop stop-color="#D2D4D5"/><stop offset="1" stop-color="#AAACAE"/></linearGradient><linearGradient id="paint9_linear" x1="80.577" y1="166.557" x2="100.884" y2="175.338" gradientUnits="userSpaceOnUse"><stop stop-color="#FFF8E1"/><stop offset="1" stop-color="#FFCC80"/></linearGradient><linearGradient id="paint10_linear" x1="7912.06" y1="3013.73" x2="8430.29" y2="3581.97" gradientUnits="userSpaceOnUse"><stop stop-color="#FFF8E1"/><stop offset="1" stop-color="#FFCC80"/></linearGradient><linearGradient id="paint11_linear" x1="8081.47" y1="3299.22" x2="8536.41" y2="4160.69" gradientUnits="userSpaceOnUse"><stop stop-color="#FFF8E1"/><stop offset="1" stop-color="#FFCC80"/></linearGradient><filter id="filter0_d" x="37" y="119.843" width="116.145" height="76.276" filterUnits="userSpaceOnUse" color-interpolation-filters="sRGB"><feFlood flood-opacity="0" result="BackgroundImageFix"/><feColorMatrix in="SourceAlpha" values="0 0 0 0 0 0 0 0 0 0 0 0 0 0 0 0 0 0 127 0"/><feOffset dx="5" dy="5"/><feGaussianBlur stdDeviation="10"/><feColorMatrix values="0 0 0 0 0 0 0 0 0 0 0 0 0 0 0 0 0 0 0.2 0"/><feBlend in2="BackgroundImageFix" result="effect1_dropShadow"/><feBlend in="SourceGraphic" in2="effect1_dropShadow" result="shape"/></filter></defs></svg>