<svg width="284" height="216" fill="none" xmlns="http://www.w3.org/2000/svg"><path d="M207.995 138a66.475 66.475 0 01-9.592 34.377 65.762 65.762 0 01-27.839 25.275 62.77 62.77 0 01-6.489 2.683 65.183 65.183 0 01-49.146-2.469 65.651 65.651 0 01-27.323-23.914 66.374 66.374 0 01-10.496-32.985 66.443 66.443 0 017.52-33.801 65.793 65.793 0 0123.465-25.307 65.097 65.097 0 0132.947-9.842 65.056 65.056 0 0133.354 8.333 65.726 65.726 0 0124.574 24.215 66.422 66.422 0 019.025 33.425v.01z" fill="url(#paint0_linear)"/><path d="M116.854 178.742l-7.231-11.387s20.031-23.343 22.036-24.723c0 0-10.104 17.088-14.805 36.11z" fill="url(#paint1_linear)"/><path d="M109.623 167.355L95.99 179.572l-25.08-12.217-19.188 1.059s11.951 4.072 15.314 3.904l3.368-.168s20.597 20.02 25.333 21.547c4.736 1.527 20.294-10.445 20.294-10.445l.903-4.474-7.311-11.423z" fill="url(#paint2_linear)"/><path d="M147.241 139.868a18.392 18.392 0 01-6.024 1.751c-2.419.367-6.095-.987-6.095-.987 2.777-2.204 2.131-7.402 2.131-7.402l.06-.03c2.964-.229 5.444-1.924 7.176-3.563-.626 4.449 2.752 10.231 2.752 10.231z" fill="url(#paint3_linear)"/><path d="M147.241 123.315v3.054a18.619 18.619 0 01-2.747 3.252c-1.732 1.645-4.211 3.34-7.175 3.564a9.035 9.035 0 01-3.959-.586c-8.079-3.054-2.398-19.215-2.398-19.215 2.565-6.577 14.178-3.396 14.178-3.396 1.555 1.869 1.853 7.086 1.793 7.595a10.085 10.085 0 01-1.01 2.036s2.207-2.097 2.964-.702c.757 1.394-1.646 4.398-1.646 4.398z" fill="url(#paint4_linear)"/><path d="M147.241 126.379v-3.054s2.398-2.978 1.641-4.383c-.757-1.405-2.964.703-2.964.703.412-.638.751-1.321 1.01-2.036.06-.509-.192-5.432-1.793-7.595 0 0-11.613-3.182-14.178 3.395 0 0-3.323-.85-6.186-4.836-4.681-6.52.909-7.319 6.448-6.062 6.721 1.527 13.457-3.482 21.157 1.608 7.7 5.091.798 16.661-5.135 22.26z" fill="#262F72"/><g filter="url(#filter0_d)"><path d="M94.384 97.96H28.868c-1.584 0-2.868 1.295-2.868 2.891v60.9c0 1.597 1.284 2.891 2.868 2.891h65.516c1.584 0 2.868-1.294 2.868-2.891v-60.9c0-1.596-1.284-2.89-2.868-2.89z" fill="#fff"/></g><path d="M36.912 110.044a1.528 1.528 0 01-.677.448c-.312.109-.64.163-.97.158a1.909 1.909 0 01-.98-.244 1.637 1.637 0 01-.65-.713 2.53 2.53 0 01-.238-1.099v-.296c-.009-.386.065-.77.217-1.124.131-.301.35-.555.627-.728a2.058 2.058 0 011.094-.249c.38.021.748.148 1.062.366.3.277.482.663.505 1.074h-.864a.868.868 0 00-.262-.545.831.831 0 00-.556-.173.78.78 0 00-.692.341c-.177.308-.26.663-.237 1.018v.275c-.022.358.068.714.258 1.018a.884.884 0 00.752.351c.255.023.51-.054.712-.214v-.748h-.808v-.656h1.697l.01 1.74z" fill="#64B5F6"/><path d="M88.83 106.191H42.406a1.03 1.03 0 00-1.025 1.033v3.757c0 .571.459 1.033 1.025 1.033H88.83c.566 0 1.025-.462 1.025-1.033v-3.757a1.03 1.03 0 00-1.025-1.033z" fill="#E7EEF2"/><path d="M89.855 115.303H41.38v1.018h48.474v-1.018z" fill="#BBDEFB"/><path d="M89.855 117.593H41.38v1.018h48.474v-1.018zm0 2.291H41.38v1.018h48.474v-1.018zm0 2.29H41.38v1.018h48.474v-1.018z" fill="#E7E8E9"/><path d="M89.855 126.46H41.38v1.018h48.474v-1.018z" fill="#BBDEFB"/><path d="M89.855 128.751H41.38v1.018h48.474v-1.018zm0 2.291H41.38v1.018h48.474v-1.018zm0 2.29H41.38v1.018h48.474v-1.018z" fill="#E7E8E9"/><path d="M89.855 137.491H41.38v1.018h48.474v-1.018z" fill="#BBDEFB"/><path d="M89.855 139.782H41.38v1.018h48.474v-1.018zm0 2.29H41.38v1.018h48.474v-1.018zm0 2.291H41.38v1.018h48.474v-1.018z" fill="#E7E8E9"/><path d="M89.855 148.521H41.38v1.019h48.474v-1.019z" fill="#BBDEFB"/><path d="M89.855 150.812H41.38v1.018h48.474v-1.018zm0 2.291H41.38v1.018h48.474v-1.018zm0 2.29H41.38v1.018h48.474v-1.018z" fill="#E7E8E9"/><path d="M164.707 164.459c3.454 10.364 6.014 22.361 7.761 32.242-.626.331-1.262.646-1.904.952a62.77 62.77 0 01-6.488 2.682 61.329 61.329 0 01-4.641 1.436 65.187 65.187 0 01-44.505-3.905 63.612 63.612 0 01-1.701-.829 1794.335 1794.335 0 015.231-26.118c2.893-13.892 7.044-21.456 10.472-25.553l.035-.041a21.504 21.504 0 012.111-2.189.403.403 0 01.071-.066c.171-.153.343-.295.505-.433 2.065-1.695 3.469-2.005 3.469-2.005l.126.046h.071c1.096.436 2.246.721 3.418.85h.227c.749.072 1.502.084 2.252.035h.046a14.27 14.27 0 005.948-1.73 21.595 21.595 0 016.004 3.12c5.221 3.863 15.739 18.029 15.739 18.029l-4.247 3.477z" fill="url(#paint5_linear)"/><path d="M183.939 183.802c-.03 1.415-1.307 4.286-3.176 7.768a64.995 64.995 0 01-8.301 5.131c-.626.33-1.262.646-1.904.951a62.77 62.77 0 01-6.488 2.683l4.878-15.673-12.624-13.362 8.377-6.841 4.247-3.466s15.123 17.337 14.991 22.809z" fill="url(#paint6_linear)"/><defs><linearGradient id="paint0_linear" x1="142.788" y1="79.167" x2="140.512" y2="209.263" gradientUnits="userSpaceOnUse"><stop stop-color="#fff" stop-opacity="0"/><stop offset="1" stop-color="#64B5F6" stop-opacity=".6"/></linearGradient><linearGradient id="paint1_linear" x1="122.231" y1="140.209" x2="118.384" y2="175.452" gradientUnits="userSpaceOnUse"><stop stop-color="#42A5F5"/><stop offset="1" stop-color="#1565C0"/></linearGradient><linearGradient id="paint2_linear" x1="78.534" y1="177.322" x2="120.455" y2="182.833" gradientUnits="userSpaceOnUse"><stop stop-color="#FFE082"/><stop offset="1" stop-color="#FFA726"/></linearGradient><linearGradient id="paint3_linear" x1="9433.78" y1="2616.52" x2="9436.77" y2="2387.66" gradientUnits="userSpaceOnUse"><stop stop-color="#FFE082"/><stop offset="1" stop-color="#FFA726"/></linearGradient><linearGradient id="paint4_linear" x1="15003.3" y1="4147.82" x2="15796.5" y2="4147.82" gradientUnits="userSpaceOnUse"><stop stop-color="#FFE082"/><stop offset="1" stop-color="#FFA726"/></linearGradient><linearGradient id="paint5_linear" x1="42964.6" y1="15175.6" x2="48863.7" y2="20845.6" gradientUnits="userSpaceOnUse"><stop stop-color="#42A5F5"/><stop offset="1" stop-color="#1565C0"/></linearGradient><linearGradient id="paint6_linear" x1="23025.9" y1="12337.9" x2="22622.5" y2="9819.27" gradientUnits="userSpaceOnUse"><stop stop-color="#FFE082"/><stop offset="1" stop-color="#FFA726"/></linearGradient><filter id="filter0_d" x="16" y="91.96" width="91.252" height="86.682" filterUnits="userSpaceOnUse" color-interpolation-filters="sRGB"><feFlood flood-opacity="0" result="BackgroundImageFix"/><feColorMatrix in="SourceAlpha" values="0 0 0 0 0 0 0 0 0 0 0 0 0 0 0 0 0 0 127 0"/><feOffset dy="4"/><feGaussianBlur stdDeviation="5"/><feColorMatrix values="0 0 0 0 0 0 0 0 0 0 0 0 0 0 0 0 0 0 0.15 0"/><feBlend in2="BackgroundImageFix" result="effect1_dropShadow"/><feBlend in="SourceGraphic" in2="effect1_dropShadow" result="shape"/></filter></defs></svg>