<svg width="32" height="32" fill="none" xmlns="http://www.w3.org/2000/svg"><path d="M8.434 17.043h3.508v14.44c0 .286.23.517.516.517h5.947a.516.516 0 00.517-.516V17.11h4.032a.516.516 0 00.513-.457l.612-5.316a.516.516 0 00-.512-.575h-4.645V7.43c0-1.005.54-1.514 1.608-1.514h3.037a.516.516 0 00.516-.516V.52a.516.516 0 00-.516-.516H19.38A4.103 4.103 0 0019.19 0c-.726 0-3.25.143-5.244 1.977-2.209 2.033-1.902 4.466-1.829 4.888v3.897H8.434a.516.516 0 00-.516.517v5.248c0 .285.231.516.516.516z" fill="#fff"/></svg>