<svg width="32" height="32" fill="none" xmlns="http://www.w3.org/2000/svg"><path d="M26.667 0H5.333A5.333 5.333 0 000 5.333v21.334A5.333 5.333 0 005.333 32h21.334A5.333 5.333 0 0032 26.667V5.333A5.333 5.333 0 0026.667 0zm2.666 26.667a2.667 2.667 0 01-2.666 2.666H5.333a2.667 2.667 0 01-2.666-2.666V5.333a2.667 2.667 0 012.666-2.666h21.334a2.667 2.667 0 012.666 2.666v21.334z" fill="#fff"/><path d="M16 8a8 8 0 100 16 8 8 0 000-16zm0 13.333a5.333 5.333 0 110-10.666 5.333 5.333 0 010 10.666zm8.667-12a2 2 0 100-4 2 2 0 000 4z" fill="#fff"/></svg>