<svg width="32" height="32" viewBox="0 0 32 32" fill="none" xmlns="http://www.w3.org/2000/svg">
<path d="M26.6667 0H5.33333C3.91885 0 2.56229 0.561903 1.5621 1.5621C0.561903 2.56229 0 3.91885 0 5.33333L0 26.6667C0 28.0812 0.561903 29.4377 1.5621 30.4379C2.56229 31.4381 3.91885 32 5.33333 32H26.6667C28.0812 32 29.4377 31.4381 30.4379 30.4379C31.4381 29.4377 32 28.0812 32 26.6667V5.33333C32 3.91885 31.4381 2.56229 30.4379 1.5621C29.4377 0.561903 28.0812 0 26.6667 0V0ZM29.3333 26.6667C29.3333 27.3739 29.0524 28.0522 28.5523 28.5523C28.0522 29.0524 27.3739 29.3333 26.6667 29.3333H5.33333C4.62609 29.3333 3.94781 29.0524 3.44772 28.5523C2.94762 28.0522 2.66667 27.3739 2.66667 26.6667V5.33333C2.66667 4.62609 2.94762 3.94781 3.44772 3.44772C3.94781 2.94762 4.62609 2.66667 5.33333 2.66667H26.6667C27.3739 2.66667 28.0522 2.94762 28.5523 3.44772C29.0524 3.94781 29.3333 4.62609 29.3333 5.33333V26.6667Z" fill="white"/>
<path d="M16 8C14.4178 8 12.871 8.46919 11.5554 9.34824C10.2398 10.2273 9.21447 11.4767 8.60897 12.9385C8.00347 14.4003 7.84504 16.0089 8.15372 17.5607C8.4624 19.1126 9.22433 20.538 10.3431 21.6569C11.462 22.7757 12.8874 23.5376 14.4393 23.8463C15.9911 24.155 17.5997 23.9965 19.0615 23.391C20.5233 22.7855 21.7727 21.7602 22.6518 20.4446C23.5308 19.129 24 17.5823 24 16C24 13.8783 23.1572 11.8434 21.6569 10.3431C20.1566 8.84286 18.1217 8 16 8ZM16 21.3333C14.9452 21.3333 13.914 21.0205 13.037 20.4345C12.1599 19.8485 11.4763 19.0155 11.0726 18.041C10.669 17.0664 10.5634 15.9941 10.7691 14.9595C10.9749 13.925 11.4829 12.9746 12.2288 12.2288C12.9746 11.4829 13.925 10.9749 14.9595 10.7691C15.9941 10.5634 17.0664 10.669 18.041 11.0726C19.0155 11.4763 19.8485 12.1599 20.4345 13.037C21.0205 13.914 21.3333 14.9452 21.3333 16C21.3333 17.4145 20.7714 18.771 19.7712 19.7712C18.771 20.7714 17.4145 21.3333 16 21.3333Z" fill="white"/>
<path d="M24.667 9.33325C25.7716 9.33325 26.667 8.43782 26.667 7.33325C26.667 6.22868 25.7716 5.33325 24.667 5.33325C23.5624 5.33325 22.667 6.22868 22.667 7.33325C22.667 8.43782 23.5624 9.33325 24.667 9.33325Z" fill="white"/>
</svg>
