<svg width="32" height="32" fill="none" xmlns="http://www.w3.org/2000/svg"><path d="M4.465 0A4.476 4.476 0 000 4.465 4.476 4.476 0 004.465 8.93 4.476 4.476 0 008.93 4.465 4.476 4.476 0 004.465 0zm0 1.488a2.966 2.966 0 012.977 2.977 2.966 2.966 0 01-2.977 2.977 2.966 2.966 0 01-2.977-2.977 2.966 2.966 0 012.977-2.977zm19.349 8.186c-2.38 0-3.997 1.012-5.21 2.175v-.686a.773.773 0 00-.744-.744h-5.953a.773.773 0 00-.744.744v20.093c0 .39.354.744.744.744h6.326c.39 0 .744-.355.744-.744V20.093c0-.942.297-1.834.732-2.442.436-.607.963-.907 1.5-.907h.744c.538 0 1.065.3 1.5.907.436.608.733 1.5.733 2.442v11.163c0 .39.355.744.744.744h6.326c.39 0 .744-.355.744-.744v-4.093a.774.774 0 00-.744-.755.774.774 0 00-.744.755v3.349h-4.838V20.093c0-1.243-.37-2.41-1.011-3.302-.64-.893-1.598-1.535-2.71-1.535h-.744c-1.111 0-2.069.642-2.709 1.535-.64.892-1.012 2.059-1.012 3.302v4.465h-.441a.774.774 0 00-.71.78c.018.389.39.727.78.709h.371v1.488h-.441a.774.774 0 00-.71.779c.018.39.39.728.78.71h.371v1.488h-4.837V11.907h4.465v1.86c0 .306.21.602.498.703a.764.764 0 00.828-.237c1.25-1.558 2.58-3.07 5.372-3.07 2.67 0 4.262.686 5.256 1.849.993 1.162 1.442 2.93 1.442 5.22v5.954a.774.774 0 00.744.755c.393 0 .75-.362.744-.755v-5.953c0-2.481-.465-4.635-1.79-6.187-1.326-1.551-3.457-2.372-6.396-2.372zm-22.395.745a.771.771 0 00-.675.744v20.093c0 .39.355.744.744.744h6.326c.39 0 .744-.355.744-.744V11.163a.773.773 0 00-.744-.744H1.419zm.814 1.488H7.07v12.651h-.442a.774.774 0 00-.71.78c.019.389.39.727.78.709h.372v1.488h-.442a.774.774 0 00-.71.779c.019.39.39.728.78.71h.372v1.488H2.233V11.907z" fill="#fff"/></svg>