<svg width="32" height="32" fill="none" xmlns="http://www.w3.org/2000/svg"><path d="M26.585 4H5.415a5.316 5.316 0 00-3.829 1.647A5.733 5.733 0 000 9.622v11.756c0 1.49.57 2.92 1.586 3.975A5.316 5.316 0 005.416 27h21.169a5.316 5.316 0 003.829-1.647A5.733 5.733 0 0032 21.378V9.622c0-1.49-.57-2.92-1.586-3.975A5.316 5.316 0 0026.584 4zm-4.318 11.725l-9.6 5.111a.239.239 0 01-.24-.008.262.262 0 01-.12-.217V10.39a.262.262 0 01.12-.217.24.24 0 01.24-.008l9.6 5.111a.25.25 0 01.098.094.263.263 0 01-.098.361v-.005z" fill="#1F3F68"/></svg>