<svg width="145" height="16" fill="none" xmlns="http://www.w3.org/2000/svg"><path d="M2.7 1H.4v14h8v-2.2H2.7V1zm18.609 12.16c1.42-1.42 2.12-3.14 2.12-5.16s-.7-3.74-2.12-5.14c-1.4-1.42-3.12-2.12-5.14-2.12-2.02 0-3.74.7-5.16 2.12-1.4 1.4-2.1 3.12-2.1 5.14 0 2.02.7 3.74 2.1 5.16 1.42 1.4 3.14 2.1 5.16 2.1s3.74-.7 5.14-2.1zm-8.68-1.56c-.94-.96-1.42-2.16-1.42-3.6s.48-2.64 1.42-3.58c.96-.96 2.14-1.44 3.54-1.44s2.58.48 3.52 1.44c.96.94 1.44 2.14 1.44 3.58s-.48 2.64-1.44 3.6c-.94.94-2.12 1.42-3.52 1.42s-2.58-.48-3.54-1.42zm19.918-3.84v2.06h4.68c-.42 1.94-2.04 3.2-4.52 3.2-1.54 0-2.8-.48-3.76-1.42-.94-.94-1.42-2.14-1.42-3.58s.48-2.64 1.42-3.6 2.16-1.44 3.62-1.44c1.82 0 3.38.88 4.12 2.22l1.98-1.14c-1.2-2.02-3.48-3.32-6.1-3.32-2.08 0-3.82.7-5.24 2.12-1.4 1.4-2.1 3.12-2.1 5.14 0 2.04.7 3.76 2.1 5.16 1.42 1.4 3.2 2.1 5.36 2.1 2.04 0 3.7-.6 4.96-1.82 1.26-1.22 1.9-2.8 1.9-4.72v-.96h-7zm21.202 5.4c1.42-1.42 2.12-3.14 2.12-5.16s-.7-3.74-2.12-5.14C52.35 1.44 50.63.74 48.61.74s-3.74.7-5.16 2.12c-1.4 1.4-2.1 3.12-2.1 5.14 0 2.02.7 3.74 2.1 5.16 1.42 1.4 3.14 2.1 5.16 2.1s3.74-.7 5.14-2.1zm-8.68-1.56c-.94-.96-1.42-2.16-1.42-3.6s.48-2.64 1.42-3.58c.96-.96 2.14-1.44 3.54-1.44s2.58.48 3.52 1.44c.96.94 1.44 2.14 1.44 3.58s-.48 2.64-1.44 3.6c-.94.94-2.12 1.42-3.52 1.42s-2.58-.48-3.54-1.42zm25.318 3.66c1.28 0 2.46-.3 3.52-.9 1.08-.62 1.92-1.44 2.5-2.46l-2-1.14c-.72 1.38-2.26 2.26-4.02 2.26-1.5 0-2.7-.48-3.64-1.42-.92-.94-1.38-2.14-1.38-3.6s.46-2.66 1.38-3.6c.94-.94 2.14-1.42 3.64-1.42 1.76 0 3.28.88 4.02 2.26l2-1.16c-1.2-2.06-3.48-3.34-6.02-3.34-2.1 0-3.86.7-5.24 2.1-1.38 1.38-2.08 3.1-2.08 5.16s.7 3.78 2.08 5.18c1.38 1.38 3.14 2.08 5.24 2.08zM81.018 1h-2.3v14h8v-2.2h-5.7V1zm7.807 14h2.3V1h-2.3v14zm7.798-5.98h5.6V6.84h-5.6V3.2h6.1V1h-8.4v14h8.5v-2.2h-6.2V9.02zm17.105 1.48l-6.6-9.5h-1.8v14h2.3V5.5l6.6 9.5h1.8V1h-2.3v9.5zm4.396-9.5v2.2h3.96V15h2.3V3.2h3.94V1h-10.2zm21.501 4.7l3.2-4.7h-2.62l-4.44 6.66c-.56.82-.84 1.76-.84 2.82 0 1.42.46 2.56 1.38 3.46.92.88 2.12 1.32 3.58 1.32s2.64-.44 3.56-1.32c.92-.9 1.38-2.04 1.38-3.46s-.46-2.56-1.38-3.44c-.92-.9-2.1-1.34-3.56-1.34h-.26zm.26 7.38c-1.58 0-2.66-1.02-2.66-2.6s1.08-2.6 2.66-2.6c1.54 0 2.64 1.02 2.64 2.6s-1.1 2.6-2.64 2.6z" fill="#fff"/></svg>